<svg width="63" height="59" viewBox="0 0 63 59" fill="none" xmlns="http://www.w3.org/2000/svg">
<path d="M28.64 15.16C22.68 15.16 17.83 20.02 17.83 26C17.83 31.98 22.68 36.84 28.64 36.84C34.6 36.84 39.45 31.98 39.45 26C39.45 20.02 34.6 15.16 28.64 15.16Z" fill="#E8CC00"/>
<path d="M48.4 47.13C48.04 47.47 47.57 47.66 47.08 47.66C46.56 47.66 46.07 47.45 45.71 47.07L37.02 38.01C34.55 39.75 31.67 40.67 28.64 40.67C20.58 40.67 14.02 34.09 14.02 26C14.02 17.91 20.58 11.33 28.64 11.33C36.7 11.33 43.26 17.91 43.26 26C43.26 29.46 42.04 32.79 39.83 35.43L48.45 44.42C49.18 45.18 49.16 46.39 48.4 47.13ZM17.79 0C7.97 0 0 7.99 0 17.85V59C0.3 58.99 0.61 58.95 0.92 58.95H63.01V0H17.79Z" fill="#E8CC00"/>
</svg>
