<svg width="45" height="42" viewBox="0 0 45 42" fill="none" xmlns="http://www.w3.org/2000/svg">
<g clip-path="url(#clip0_3_326)">
<path d="M12.7097 0C5.68881 0 0 5.68983 0 12.707V42.0022C0.219403 41.9933 0.434328 41.9687 0.65597 41.9687H45.0022V0H12.7097ZM28.6119 8.71605C30.3134 8.24824 31.7776 8.94436 32.2836 10.8022L32.7896 12.7361H13.6007L28.6119 8.71605ZM37.2784 30.448C37.2784 32.1111 35.9642 33.425 34.3008 33.425H10.6993C9.03806 33.425 7.72164 32.1111 7.72164 30.448V17.5306C7.72164 15.8675 9.03582 14.5536 10.6993 14.5536H34.294C35.9239 14.5536 37.2784 15.9056 37.2784 17.5306V30.448Z" fill="#F46E00"/>
<path d="M26.0597 24.1046C25.4396 23.5607 24.5104 23.1757 23.2343 22.9049H23.1963V19.7712C24.0493 19.8854 24.8597 20.2323 25.5918 20.7382L26.6731 19.1892C25.5918 18.4551 24.4299 18.0275 23.1896 17.9514V17.0986H22.1082V17.9134C21.0269 17.9514 20.1739 18.2984 19.4799 18.9184C18.8216 19.5384 18.4746 20.3084 18.4746 21.2754C18.4746 22.2423 18.7836 22.9742 19.3657 23.4421C19.9478 23.9479 20.8769 24.3329 22.1149 24.6418V27.8896C21.1097 27.7374 20.1806 27.2315 19.2134 26.4168L17.9754 27.8896C19.1754 28.9327 20.5679 29.5527 22.0769 29.7094V30.9472H23.1582V29.7474C24.2776 29.7094 25.2067 29.3624 25.9075 28.7424C26.6396 28.0911 26.9888 27.3144 26.9888 26.3474C26.9888 25.3804 26.6799 24.6485 26.0597 24.1046ZM22.1149 22.6004C21.4948 22.4035 21.0716 22.1774 20.8388 21.9804C20.606 21.7476 20.4918 21.4746 20.4918 21.0896C20.5299 20.7046 20.6821 20.3935 20.953 20.1226C21.2239 19.8898 21.6112 19.7376 22.1149 19.6996V22.6004ZM24.4724 27.4733C24.1634 27.7396 23.7403 27.8963 23.1963 27.9344V24.9194C23.8925 25.1163 24.3224 25.3424 24.5866 25.5774C24.8194 25.8102 24.9336 26.1213 24.9336 26.5063C24.9336 26.8913 24.7813 27.2024 24.4724 27.4733Z" fill="#F46E00"/>
</g>
<defs>
<clipPath id="clip0_3_326">
<rect width="45" height="42" fill="white"/>
</clipPath>
</defs>
</svg>
