<svg width="195" height="41" viewBox="0 0 195 41" fill="none" xmlns="http://www.w3.org/2000/svg">
<path d="M2.35 10.89C3.91 7.94 6.14 5.64 9.01 3.99C11.89 2.34 15.2 1.52 18.94 1.52C23.69 1.52 27.68 2.8 30.92 5.35C34.05 7.82 36.1 11.14 37.08 15.32C37.13 15.54 36.96 15.75 36.74 15.75H26C25.87 15.75 25.75 15.67 25.7 15.56C25.02 14.21 24.11 13.16 22.96 12.44C21.76 11.68 20.36 11.3 18.78 11.3C16.33 11.3 14.38 12.18 12.93 13.94C11.47 15.7 10.74 18.04 10.74 20.98C10.74 23.92 11.47 26.31 12.93 28.07C14.39 29.83 16.34 30.71 18.78 30.71C20.36 30.71 21.76 30.33 22.96 29.57C24.11 28.84 25.02 27.8 25.7 26.45C25.76 26.33 25.88 26.26 26 26.26H36.74C36.96 26.26 37.13 26.47 37.08 26.69C36.1 30.87 34.05 34.19 30.92 36.67C27.68 39.22 23.69 40.5 18.94 40.5C15.2 40.5 11.89 39.68 9.01 38.03C6.13 36.38 3.91 34.08 2.35 31.13C0.79 28.18 0 24.8 0 21C0 17.2 0.78 13.88 2.35 10.92V10.89Z" fill="#F46E00"/>
<path d="M42.53 0H52.41C52.6 0 52.76 0.16 52.76 0.35V39.86C52.76 40.05 52.61 40.2 52.42 40.2H42.54C42.35 40.2 42.19 40.04 42.19 39.85V0.34C42.19 0.15 42.34 0 42.53 0Z" fill="#F46E00"/>
<path d="M89.78 10.07V39.85C89.78 40.04 89.63 40.2 89.44 40.2H79.5C79.31 40.2 79.16 40.04 79.16 39.85V36.9C79.16 36.57 78.76 36.43 78.54 36.68C77.72 37.68 76.68 38.52 75.43 39.18C73.85 40.03 72.03 40.46 69.98 40.46C66.45 40.46 63.68 39.29 61.65 36.96C59.62 34.63 58.6 31.45 58.6 27.43V10.07C58.6 9.88 58.75 9.72 58.94 9.72H68.77C68.96 9.72 69.11 9.88 69.11 10.07V26.08C69.11 27.82 69.57 29.19 70.49 30.18C71.41 31.18 72.62 31.68 74.13 31.68C75.64 31.68 76.9 31.18 77.8 30.18C78.7 29.18 79.15 27.82 79.15 26.08V10.07C79.15 9.88 79.3 9.72 79.49 9.72H89.43C89.62 9.72 89.77 9.88 89.77 10.07H89.78Z" fill="#F46E00"/>
<path d="M115.8 20.29C114.74 19.19 113.43 18.63 111.89 18.63C110.35 18.63 109.04 19.19 107.98 20.31C106.92 21.43 106.39 22.97 106.39 24.93C106.39 26.89 106.92 28.48 107.98 29.6C109.04 30.72 110.34 31.28 111.89 31.28C113.44 31.28 114.74 30.71 115.8 29.57C116.86 28.43 117.39 26.88 117.39 24.93C117.39 22.98 116.86 21.39 115.8 20.29ZM109.9 10.56C111.41 9.75 113.19 9.34 115.24 9.34C117.65 9.34 119.83 9.98 121.8 11.24C123.76 12.51 125.31 14.32 126.44 16.67C127.57 19.03 128.14 21.78 128.14 24.93C128.14 28.08 127.57 30.84 126.44 33.22C125.31 35.59 123.76 37.41 121.8 38.68C119.84 39.95 117.66 40.58 115.24 40.58C113.19 40.58 111.41 40.17 109.9 39.36C108.73 38.73 107.77 37.91 107.01 36.9C106.81 36.64 106.4 36.79 106.4 37.12V39.86C106.4 40.05 106.25 40.21 106.06 40.21H96.17C95.98 40.21 95.83 40.05 95.83 39.86V0.35C95.83 0.16 95.98 0 96.17 0H106.06C106.25 0 106.4 0.16 106.4 0.35V12.81C106.4 13.14 106.82 13.29 107.01 13.03C107.77 12.02 108.73 11.2 109.9 10.57V10.56Z" fill="#F46E00"/>
<path d="M150.27 21.95C150.47 21.95 150.63 21.79 150.61 21.59C150.54 20.46 150.11 19.55 149.33 18.88C148.47 18.14 147.39 17.77 146.09 17.77C144.79 17.77 143.73 18.12 142.91 18.83C142.17 19.46 141.66 20.36 141.38 21.53C141.33 21.75 141.5 21.95 141.72 21.95H150.27ZM160.95 27.11H141.62C141.42 27.11 141.25 27.29 141.28 27.49C141.43 28.96 141.88 30.08 142.62 30.83C143.43 31.64 144.46 32.05 145.72 32.05C147.41 32.05 148.64 31.32 149.4 29.85C149.46 29.73 149.58 29.66 149.7 29.66H160.33C160.55 29.66 160.72 29.87 160.67 30.09C160.18 32.02 159.31 33.75 158.05 35.28C156.7 36.93 155 38.22 152.95 39.16C150.9 40.1 148.63 40.57 146.15 40.57C143.16 40.57 140.51 39.94 138.19 38.67C135.87 37.4 134.05 35.59 132.74 33.24C131.43 30.89 130.77 28.12 130.77 24.93C130.77 21.74 131.42 18.98 132.71 16.64C134 14.31 135.81 12.5 138.13 11.24C140.45 9.97 143.12 9.34 146.14 9.34C149.16 9.34 151.77 9.96 154.07 11.19C156.37 12.42 158.17 14.19 159.46 16.49C160.75 18.79 161.4 21.5 161.4 24.61C161.4 25.34 161.36 26.07 161.28 26.8C161.26 26.98 161.11 27.11 160.94 27.11H160.95Z" fill="#F46E00"/>
<path d="M195 23.35V26.68C195 28.18 193.78 29.41 192.29 29.41H185.27V36.48C185.27 37.98 184.05 39.21 182.56 39.21H179.26C177.76 39.21 176.55 37.99 176.55 36.48V29.41H169.53C168.03 29.41 166.82 28.19 166.82 26.68V23.35C166.82 21.85 168.04 20.62 169.53 20.62H176.55V13.55C176.55 12.05 177.77 10.82 179.26 10.82H182.56C184.05 10.82 185.27 12.05 185.27 13.55V20.62H192.29C193.79 20.62 195 21.85 195 23.35Z" fill="#F46E00"/>
</svg>
