<svg width="195" height="56" viewBox="0 0 195 56" fill="none" xmlns="http://www.w3.org/2000/svg">
<path d="M4.10994 54.74C3.74994 54.58 3.45994 54.35 3.25994 54.06C3.04994 53.77 2.94994 53.43 2.93994 53.05H3.89994C3.92994 53.38 4.06994 53.65 4.29994 53.88C4.53994 54.11 4.87994 54.21 5.32994 54.21C5.77994 54.21 6.09994 54.1 6.34994 53.88C6.59994 53.66 6.71994 53.38 6.71994 53.04C6.71994 52.77 6.64994 52.56 6.49994 52.39C6.34994 52.22 6.16994 52.1 5.94994 52.01C5.72994 51.92 5.43994 51.83 5.06994 51.73C4.60994 51.61 4.24994 51.49 3.96994 51.37C3.68994 51.25 3.45994 51.06 3.25994 50.8C3.05994 50.54 2.96994 50.2 2.96994 49.76C2.96994 49.38 3.06994 49.04 3.25994 48.75C3.44994 48.46 3.71994 48.23 4.06994 48.07C4.41994 47.91 4.81994 47.83 5.26994 47.83C5.91994 47.83 6.44994 47.99 6.86994 48.32C7.27994 48.65 7.51994 49.08 7.56994 49.62H6.57994C6.54994 49.35 6.40994 49.12 6.15994 48.91C5.90994 48.7 5.58994 48.61 5.18994 48.61C4.80994 48.61 4.49994 48.71 4.26994 48.9C4.02994 49.1 3.90994 49.37 3.90994 49.73C3.90994 49.99 3.97994 50.19 4.11994 50.35C4.25994 50.51 4.43994 50.63 4.64994 50.71C4.85994 50.79 5.14994 50.89 5.52994 51C5.98994 51.13 6.34994 51.25 6.62994 51.37C6.90994 51.49 7.14994 51.68 7.34994 51.94C7.54994 52.2 7.64994 52.54 7.64994 52.99C7.64994 53.33 7.55994 53.65 7.37994 53.95C7.19994 54.25 6.93994 54.49 6.58994 54.68C6.23994 54.87 5.81994 54.96 5.34994 54.96C4.87994 54.96 4.47994 54.88 4.11994 54.71L4.10994 54.74Z" fill="#F46E00"/>
<path d="M12.78 50.87C12.63 50.62 12.42 50.43 12.16 50.3C11.9 50.17 11.61 50.11 11.29 50.11C10.83 50.11 10.44 50.26 10.12 50.55C9.8 50.84 9.61999 51.25 9.56999 51.77H13.01C13.01 51.42 12.93 51.13 12.78 50.87ZM13.92 52.51H9.56C9.59 53.05 9.77999 53.47 10.11 53.78C10.44 54.09 10.85 54.24 11.33 54.24C11.72 54.24 12.05 54.15 12.31 53.96C12.57 53.78 12.76 53.53 12.86 53.22H13.83C13.69 53.75 13.39 54.18 12.95 54.51C12.51 54.84 11.97 55.01 11.32 55.01C10.8 55.01 10.34 54.89 9.93 54.66C9.52 54.43 9.2 54.09 8.97 53.66C8.74 53.23 8.62 52.73 8.62 52.16C8.62 51.59 8.73 51.1 8.96 50.67C9.19 50.24 9.5 49.91 9.91 49.68C10.32 49.45 10.79 49.33 11.32 49.33C11.85 49.33 12.29 49.44 12.69 49.67C13.09 49.9 13.39 50.21 13.61 50.61C13.82 51.01 13.93 51.45 13.93 51.96C13.93 52.13 13.93 52.32 13.9 52.51H13.92Z" fill="#F46E00"/>
<path d="M19.97 49.42V54.91H19.06V54.1C18.89 54.38 18.65 54.6 18.34 54.76C18.03 54.92 17.69 54.99 17.32 54.99C16.89 54.99 16.51 54.9 16.18 54.73C15.84 54.55 15.57 54.29 15.38 53.93C15.18 53.58 15.09 53.15 15.09 52.64V49.43H15.99V52.52C15.99 53.06 16.13 53.48 16.4 53.77C16.67 54.06 17.04 54.2 17.51 54.2C17.98 54.2 18.38 54.05 18.65 53.75C18.93 53.45 19.07 53.01 19.07 52.44V49.43H19.98L19.97 49.42Z" fill="#F46E00"/>
<path d="M24.1601 50.67C24.3901 50.25 24.7001 49.92 25.1001 49.69C25.5001 49.46 25.9601 49.34 26.4801 49.34C27.1501 49.34 27.7001 49.5 28.1301 49.83C28.5601 50.16 28.8501 50.61 28.9901 51.19H28.0101C27.9201 50.86 27.7401 50.59 27.4701 50.4C27.2001 50.21 26.8701 50.11 26.4701 50.11C25.9501 50.11 25.5301 50.29 25.2201 50.64C24.9001 51 24.7401 51.5 24.7401 52.16C24.7401 52.82 24.9001 53.33 25.2201 53.69C25.5401 54.05 25.9601 54.23 26.4701 54.23C26.8701 54.23 27.2001 54.14 27.4601 53.95C27.7201 53.76 27.9101 53.5 28.0101 53.15H28.9901C28.8501 53.71 28.5501 54.16 28.1101 54.5C27.6701 54.84 27.1301 55 26.4701 55C25.9501 55 25.5001 54.88 25.0901 54.65C24.6901 54.42 24.3801 54.08 24.1501 53.66C23.9201 53.23 23.8101 52.73 23.8101 52.16C23.8101 51.59 23.9201 51.1 24.1501 50.67H24.1601Z" fill="#F46E00"/>
<path d="M31.0999 47.5H30.1899V54.91H31.0999V47.5Z" fill="#F46E00"/>
<path d="M37.47 49.42V54.91H36.56V54.1C36.39 54.38 36.15 54.6 35.84 54.76C35.53 54.92 35.19 54.99 34.82 54.99C34.39 54.99 34.01 54.9 33.68 54.73C33.34 54.55 33.07 54.29 32.88 53.93C32.69 53.57 32.59 53.15 32.59 52.64V49.43H33.49V52.52C33.49 53.06 33.63 53.48 33.9 53.77C34.17 54.06 34.54 54.2 35.01 54.2C35.48 54.2 35.88 54.05 36.15 53.75C36.43 53.45 36.57 53.01 36.57 52.44V49.43H37.48L37.47 49.42Z" fill="#F46E00"/>
<path d="M43.36 51.06C43.19 50.75 42.97 50.52 42.69 50.36C42.41 50.2 42.1 50.12 41.76 50.12C41.42 50.12 41.12 50.2 40.84 50.37C40.56 50.53 40.33 50.77 40.16 51.08C39.99 51.39 39.91 51.75 39.91 52.16C39.91 52.57 39.99 52.93 40.16 53.24C40.33 53.55 40.56 53.79 40.84 53.95C41.12 54.11 41.43 54.2 41.76 54.2C42.09 54.2 42.41 54.12 42.69 53.95C42.97 53.79 43.19 53.55 43.36 53.24C43.53 52.93 43.61 52.57 43.61 52.14C43.61 51.71 43.53 51.36 43.36 51.06ZM40.72 49.64C41.08 49.43 41.49 49.33 41.94 49.33C42.43 49.33 42.87 49.45 43.26 49.68C43.65 49.91 43.96 50.24 44.18 50.66C44.41 51.08 44.52 51.57 44.52 52.14C44.52 52.71 44.41 53.19 44.18 53.62C43.95 54.05 43.65 54.39 43.25 54.63C42.85 54.87 42.42 54.99 41.93 54.99C41.44 54.99 41.05 54.89 40.69 54.68C40.33 54.47 40.07 54.21 39.89 53.89V54.9H38.98V47.49H39.89V50.43C40.07 50.1 40.35 49.84 40.71 49.63L40.72 49.64Z" fill="#F46E00"/>
<path d="M49.53 50.87C49.38 50.62 49.17 50.43 48.91 50.3C48.65 50.17 48.36 50.11 48.04 50.11C47.58 50.11 47.19 50.26 46.87 50.55C46.55 50.84 46.37 51.25 46.32 51.77H49.76C49.76 51.42 49.68 51.13 49.53 50.87ZM50.66 52.51H46.3C46.33 53.05 46.52 53.47 46.85 53.78C47.19 54.08 47.59 54.24 48.07 54.24C48.46 54.24 48.79 54.15 49.05 53.96C49.31 53.78 49.5 53.53 49.6 53.22H50.57C50.43 53.75 50.13 54.18 49.69 54.51C49.25 54.84 48.71 55.01 48.06 55.01C47.54 55.01 47.08 54.89 46.67 54.66C46.26 54.43 45.94 54.09 45.71 53.66C45.48 53.23 45.36 52.73 45.36 52.16C45.36 51.59 45.47 51.1 45.7 50.67C45.93 50.24 46.24 49.91 46.65 49.68C47.06 49.45 47.53 49.33 48.06 49.33C48.59 49.33 49.04 49.44 49.43 49.67C49.83 49.9 50.13 50.21 50.35 50.61C50.56 51.01 50.67 51.45 50.67 51.96C50.67 52.13 50.67 52.32 50.64 52.51H50.66Z" fill="#F46E00"/>
<path d="M58.57 51.08C58.4 50.77 58.18 50.54 57.9 50.37C57.62 50.2 57.31 50.12 56.97 50.12C56.63 50.12 56.3199 50.2 56.0499 50.36C55.7799 50.52 55.55 50.76 55.38 51.06C55.21 51.37 55.13 51.73 55.13 52.14C55.13 52.55 55.21 52.92 55.38 53.24C55.55 53.55 55.7699 53.79 56.0499 53.95C56.3299 54.11 56.64 54.2 56.97 54.2C57.3 54.2 57.62 54.12 57.9 53.95C58.18 53.79 58.4 53.55 58.57 53.24C58.74 52.93 58.82 52.57 58.82 52.15C58.82 51.73 58.74 51.38 58.57 51.07V51.08ZM54.54 50.67C54.77 50.25 55.07 49.92 55.47 49.69C55.87 49.46 56.3099 49.34 56.7999 49.34C57.2299 49.34 57.6199 49.44 57.9799 49.63C58.3499 49.83 58.62 50.09 58.81 50.41V47.51H59.72V54.92H58.81V53.89C58.63 54.22 58.37 54.49 58.02 54.7C57.67 54.91 57.26 55.02 56.79 55.02C56.32 55.02 55.87 54.9 55.47 54.66C55.07 54.42 54.77 54.08 54.54 53.65C54.31 53.22 54.2 52.72 54.2 52.17C54.2 51.62 54.31 51.12 54.54 50.69V50.67Z" fill="#F46E00"/>
<path d="M65.07 50.87C64.92 50.62 64.71 50.43 64.45 50.3C64.19 50.17 63.9 50.11 63.58 50.11C63.12 50.11 62.73 50.26 62.41 50.55C62.09 50.84 61.91 51.25 61.86 51.77H65.3C65.3 51.42 65.22 51.13 65.07 50.87ZM66.2 52.51H61.84C61.87 53.05 62.06 53.47 62.39 53.78C62.73 54.08 63.13 54.24 63.61 54.24C64 54.24 64.33 54.15 64.59 53.96C64.85 53.78 65.04 53.53 65.14 53.22H66.11C65.97 53.75 65.67 54.18 65.23 54.51C64.79 54.84 64.25 55.01 63.6 55.01C63.08 55.01 62.62 54.89 62.21 54.66C61.8 54.43 61.48 54.09 61.25 53.66C61.02 53.23 60.9 52.73 60.9 52.16C60.9 51.59 61.01 51.1 61.24 50.67C61.47 50.24 61.78 49.91 62.19 49.68C62.6 49.45 63.07 49.33 63.6 49.33C64.13 49.33 64.58 49.44 64.97 49.67C65.37 49.9 65.67 50.21 65.89 50.61C66.1 51.01 66.21 51.45 66.21 51.96C66.21 52.13 66.21 52.32 66.18 52.51H66.2Z" fill="#F46E00"/>
<path d="M74.4401 51.06C74.2701 50.75 74.0501 50.52 73.7701 50.36C73.4901 50.2 73.1801 50.12 72.8401 50.12C72.5001 50.12 72.2001 50.2 71.9201 50.37C71.6401 50.53 71.4101 50.77 71.2401 51.08C71.0701 51.39 70.9901 51.75 70.9901 52.16C70.9901 52.57 71.0701 52.93 71.2401 53.24C71.4101 53.55 71.6401 53.79 71.9201 53.95C72.2001 54.11 72.5101 54.2 72.8401 54.2C73.1701 54.2 73.4901 54.12 73.7701 53.95C74.0501 53.79 74.2701 53.55 74.4401 53.24C74.6101 52.93 74.6901 52.57 74.6901 52.14C74.6901 51.71 74.6101 51.36 74.4401 51.06ZM71.8001 49.64C72.1601 49.43 72.5701 49.33 73.0201 49.33C73.5101 49.33 73.9501 49.45 74.3401 49.68C74.7301 49.91 75.0401 50.24 75.2601 50.66C75.4901 51.08 75.6001 51.57 75.6001 52.14C75.6001 52.71 75.4901 53.19 75.2601 53.62C75.0301 54.05 74.7301 54.39 74.3301 54.63C73.9301 54.87 73.5001 54.99 73.0101 54.99C72.5201 54.99 72.1301 54.89 71.7701 54.68C71.4101 54.47 71.1501 54.21 70.9701 53.89V54.9H70.0601V47.49H70.9701V50.43C71.1501 50.1 71.4301 49.84 71.7901 49.63L71.8001 49.64Z" fill="#F46E00"/>
<path d="M80.61 50.87C80.46 50.62 80.25 50.43 79.99 50.3C79.73 50.17 79.44 50.11 79.12 50.11C78.66 50.11 78.27 50.26 77.95 50.55C77.63 50.84 77.45 51.25 77.4 51.77H80.84C80.84 51.42 80.76 51.13 80.61 50.87ZM81.75 52.51H77.39C77.42 53.05 77.61 53.47 77.94 53.78C78.28 54.08 78.68 54.24 79.16 54.24C79.55 54.24 79.88 54.15 80.14 53.96C80.4 53.78 80.59 53.53 80.69 53.22H81.66C81.52 53.75 81.22 54.18 80.78 54.51C80.34 54.84 79.8 55.01 79.15 55.01C78.63 55.01 78.17 54.89 77.76 54.66C77.35 54.43 77.03 54.09 76.8 53.66C76.57 53.23 76.45 52.73 76.45 52.16C76.45 51.59 76.56 51.1 76.79 50.67C77.02 50.24 77.33 49.91 77.74 49.68C78.15 49.45 78.62 49.33 79.15 49.33C79.68 49.33 80.13 49.44 80.52 49.67C80.92 49.9 81.22 50.21 81.44 50.61C81.65 51.01 81.76 51.45 81.76 51.96C81.76 52.13 81.76 52.32 81.73 52.51H81.75Z" fill="#F46E00"/>
<path d="M87.23 49.93C87.64 50.33 87.85 50.92 87.85 51.68V54.91H86.95V51.81C86.95 51.26 86.81 50.84 86.54 50.55C86.27 50.26 85.9 50.12 85.43 50.12C84.96 50.12 84.57 50.27 84.29 50.57C84.01 50.87 83.87 51.31 83.87 51.88V54.91H82.96V49.42H83.87V50.2C84.05 49.92 84.29 49.7 84.6 49.55C84.91 49.4 85.25 49.32 85.62 49.32C86.28 49.32 86.82 49.52 87.23 49.92V49.93Z" fill="#F46E00"/>
<path d="M93.14 50.87C92.99 50.62 92.78 50.43 92.52 50.3C92.26 50.17 91.97 50.11 91.65 50.11C91.19 50.11 90.8 50.26 90.48 50.55C90.16 50.84 89.98 51.25 89.93 51.77H93.37C93.37 51.42 93.29 51.13 93.14 50.87ZM94.27 52.51H89.91C89.94 53.05 90.13 53.47 90.46 53.78C90.8 54.08 91.2 54.24 91.68 54.24C92.07 54.24 92.4 54.15 92.66 53.96C92.92 53.78 93.11 53.53 93.21 53.22H94.18C94.04 53.75 93.74 54.18 93.3 54.51C92.86 54.84 92.32 55.01 91.67 55.01C91.15 55.01 90.69 54.89 90.28 54.66C89.87 54.43 89.55 54.09 89.32 53.66C89.09 53.23 88.97 52.73 88.97 52.16C88.97 51.59 89.08 51.1 89.31 50.67C89.54 50.24 89.85 49.91 90.26 49.68C90.67 49.45 91.14 49.33 91.67 49.33C92.2 49.33 92.65 49.44 93.04 49.67C93.44 49.9 93.74 50.21 93.96 50.61C94.17 51.01 94.28 51.45 94.28 51.96C94.28 52.13 94.28 52.32 94.25 52.51H94.27Z" fill="#F46E00"/>
<path d="M97.71 50.17H96.57V54.91H95.66V50.17H94.95V49.42H95.66V49.03C95.66 48.42 95.82 47.97 96.13 47.68C96.44 47.4 96.95 47.25 97.65 47.25V48.01C97.25 48.01 96.97 48.09 96.81 48.24C96.65 48.4 96.57 48.66 96.57 49.01V49.4H97.71V50.15V50.17Z" fill="#F46E00"/>
<path d="M99.6701 49.42V54.91H98.7601V49.42H99.6701ZM100.19 47.87L98.0701 49.01V48.33L100.19 47.08V47.87Z" fill="#F46E00"/>
<path d="M101.21 50.67C101.44 50.25 101.75 49.92 102.15 49.69C102.55 49.46 103.01 49.34 103.53 49.34C104.2 49.34 104.75 49.5 105.18 49.83C105.61 50.16 105.9 50.61 106.04 51.19H105.06C104.97 50.86 104.79 50.59 104.52 50.4C104.25 50.21 103.92 50.11 103.52 50.11C103 50.11 102.58 50.29 102.27 50.64C101.95 51 101.79 51.5 101.79 52.16C101.79 52.82 101.95 53.33 102.27 53.69C102.59 54.05 103.01 54.23 103.52 54.23C103.92 54.23 104.25 54.14 104.51 53.95C104.78 53.76 104.96 53.5 105.06 53.15H106.04C105.9 53.71 105.6 54.16 105.16 54.5C104.72 54.84 104.18 55 103.52 55C103 55 102.54 54.88 102.14 54.65C101.74 54.42 101.43 54.08 101.2 53.66C100.97 53.23 100.86 52.73 100.86 52.16C100.86 51.59 100.97 51.1 101.2 50.67H101.21Z" fill="#F46E00"/>
<path d="M108.15 49.42V54.91H107.24V49.42H108.15ZM107.27 48.35C107.15 48.23 107.09 48.08 107.09 47.91C107.09 47.74 107.15 47.59 107.27 47.47C107.39 47.35 107.54 47.29 107.71 47.29C107.88 47.29 108.02 47.35 108.13 47.47C108.24 47.59 108.31 47.74 108.31 47.91C108.31 48.08 108.25 48.23 108.13 48.35C108.01 48.47 107.87 48.53 107.71 48.53C107.55 48.53 107.39 48.47 107.27 48.35Z" fill="#F46E00"/>
<path d="M112.98 53.97C113.26 53.82 113.5 53.59 113.67 53.28C113.85 52.97 113.93 52.6 113.93 52.16C113.93 51.72 113.84 51.35 113.67 51.04C113.5 50.73 113.27 50.51 112.99 50.35C112.71 50.2 112.41 50.13 112.08 50.13C111.75 50.13 111.45 50.21 111.17 50.35C110.9 50.5 110.67 50.73 110.51 51.04C110.34 51.35 110.26 51.72 110.26 52.16C110.26 52.6 110.34 52.98 110.5 53.29C110.66 53.6 110.88 53.82 111.15 53.98C111.42 54.13 111.72 54.2 112.05 54.2C112.38 54.2 112.68 54.12 112.96 53.97H112.98ZM110.68 54.65C110.27 54.42 109.94 54.08 109.7 53.65C109.46 53.22 109.35 52.72 109.35 52.15C109.35 51.58 109.47 51.09 109.71 50.66C109.95 50.23 110.28 49.9 110.7 49.67C111.12 49.44 111.58 49.32 112.1 49.32C112.62 49.32 113.08 49.44 113.5 49.67C113.92 49.9 114.25 50.23 114.49 50.66C114.73 51.09 114.85 51.58 114.85 52.15C114.85 52.72 114.73 53.22 114.48 53.65C114.23 54.08 113.89 54.41 113.47 54.65C113.04 54.88 112.57 55 112.06 55C111.55 55 111.09 54.88 110.67 54.65H110.68Z" fill="#F46E00"/>
<path d="M116.86 54.78C116.53 54.64 116.27 54.44 116.08 54.18C115.89 53.92 115.78 53.63 115.76 53.29H116.7C116.73 53.56 116.85 53.79 117.08 53.96C117.31 54.13 117.61 54.22 117.98 54.22C118.32 54.22 118.6 54.14 118.8 53.99C119 53.84 119.1 53.64 119.1 53.41C119.1 53.18 118.99 52.99 118.78 52.87C118.57 52.75 118.24 52.64 117.8 52.52C117.4 52.41 117.07 52.3 116.81 52.19C116.55 52.08 116.34 51.92 116.15 51.7C115.97 51.48 115.88 51.2 115.88 50.84C115.88 50.56 115.96 50.3 116.13 50.07C116.3 49.84 116.53 49.65 116.84 49.51C117.14 49.37 117.49 49.31 117.88 49.31C118.48 49.31 118.97 49.46 119.34 49.77C119.71 50.08 119.91 50.5 119.93 51.03H119.02C119 50.74 118.88 50.51 118.68 50.34C118.47 50.17 118.19 50.08 117.84 50.08C117.52 50.08 117.26 50.15 117.06 50.29C116.86 50.43 116.77 50.61 116.77 50.84C116.77 51.02 116.83 51.17 116.95 51.29C117.06 51.41 117.21 51.5 117.39 51.57C117.57 51.64 117.81 51.72 118.12 51.81C118.51 51.92 118.83 52.02 119.07 52.13C119.31 52.23 119.53 52.39 119.7 52.6C119.88 52.81 119.97 53.08 119.97 53.41C119.97 53.71 119.89 53.98 119.72 54.22C119.55 54.46 119.32 54.65 119.02 54.79C118.72 54.93 118.37 55 117.98 55C117.56 55 117.19 54.93 116.86 54.78Z" fill="#F46E00"/>
<path d="M2.35 10.89C3.91 7.94002 6.14 5.64002 9.01 3.99002C11.89 2.34002 15.2 1.52002 18.94 1.52002C23.69 1.52002 27.68 2.80002 30.92 5.35002C34.05 7.82002 36.1 11.14 37.08 15.32C37.13 15.54 36.96 15.75 36.74 15.75H26C25.87 15.75 25.75 15.67 25.7 15.56C25.02 14.21 24.11 13.16 22.96 12.44C21.76 11.68 20.36 11.3 18.78 11.3C16.33 11.3 14.38 12.18 12.93 13.94C11.47 15.7 10.74 18.04 10.74 20.98C10.74 23.92 11.47 26.31 12.93 28.07C14.39 29.83 16.34 30.71 18.78 30.71C20.36 30.71 21.76 30.33 22.96 29.57C24.11 28.84 25.02 27.8 25.7 26.45C25.76 26.33 25.88 26.26 26 26.26H36.74C36.96 26.26 37.13 26.47 37.08 26.69C36.1 30.87 34.05 34.19 30.92 36.67C27.68 39.22 23.69 40.5 18.94 40.5C15.2 40.5 11.89 39.68 9.01 38.03C6.13 36.38 3.91 34.08 2.35 31.13C0.79 28.18 0 24.8 0 21C0 17.2 0.78 13.88 2.35 10.92V10.89Z" fill="#F46E00"/>
<path d="M42.5299 0H52.4099C52.5999 0 52.7599 0.16 52.7599 0.35V39.86C52.7599 40.05 52.6099 40.2 52.4199 40.2H42.5399C42.3499 40.2 42.1899 40.04 42.1899 39.85V0.34C42.1899 0.15 42.3399 0 42.5299 0Z" fill="#F46E00"/>
<path d="M89.78 10.07V39.85C89.78 40.04 89.63 40.2 89.44 40.2H79.5C79.31 40.2 79.16 40.04 79.16 39.85V36.9C79.16 36.57 78.76 36.43 78.54 36.68C77.72 37.68 76.68 38.52 75.43 39.18C73.85 40.03 72.03 40.46 69.98 40.46C66.45 40.46 63.68 39.29 61.65 36.96C59.62 34.63 58.6 31.45 58.6 27.43V10.07C58.6 9.87997 58.75 9.71997 58.94 9.71997H68.77C68.96 9.71997 69.11 9.87997 69.11 10.07V26.08C69.11 27.82 69.57 29.19 70.49 30.18C71.41 31.18 72.62 31.68 74.13 31.68C75.64 31.68 76.9 31.18 77.8 30.18C78.7 29.18 79.15 27.82 79.15 26.08V10.07C79.15 9.87997 79.3 9.71997 79.49 9.71997H89.43C89.62 9.71997 89.77 9.87997 89.77 10.07H89.78Z" fill="#F46E00"/>
<path d="M115.8 20.29C114.74 19.19 113.43 18.63 111.89 18.63C110.35 18.63 109.04 19.19 107.98 20.31C106.92 21.43 106.39 22.97 106.39 24.93C106.39 26.89 106.92 28.48 107.98 29.6C109.04 30.72 110.34 31.28 111.89 31.28C113.44 31.28 114.74 30.71 115.8 29.57C116.86 28.43 117.39 26.88 117.39 24.93C117.39 22.98 116.86 21.39 115.8 20.29ZM109.9 10.56C111.41 9.75 113.19 9.34 115.24 9.34C117.65 9.34 119.83 9.98 121.8 11.24C123.76 12.51 125.31 14.32 126.44 16.67C127.57 19.03 128.14 21.78 128.14 24.93C128.14 28.08 127.57 30.84 126.44 33.22C125.31 35.59 123.76 37.41 121.8 38.68C119.84 39.95 117.66 40.58 115.24 40.58C113.19 40.58 111.41 40.17 109.9 39.36C108.73 38.73 107.77 37.91 107.01 36.9C106.81 36.64 106.4 36.79 106.4 37.12V39.86C106.4 40.05 106.25 40.21 106.06 40.21H96.17C95.98 40.21 95.83 40.05 95.83 39.86V0.35C95.83 0.16 95.98 0 96.17 0H106.06C106.25 0 106.4 0.16 106.4 0.35V12.81C106.4 13.14 106.82 13.29 107.01 13.03C107.77 12.02 108.73 11.2 109.9 10.57V10.56Z" fill="#F46E00"/>
<path d="M150.27 21.95C150.47 21.95 150.63 21.79 150.61 21.59C150.54 20.46 150.11 19.55 149.33 18.88C148.47 18.14 147.39 17.77 146.09 17.77C144.79 17.77 143.73 18.12 142.91 18.83C142.17 19.46 141.66 20.36 141.38 21.53C141.33 21.75 141.5 21.95 141.72 21.95H150.27ZM160.95 27.11H141.62C141.42 27.11 141.25 27.29 141.28 27.49C141.43 28.96 141.88 30.08 142.62 30.83C143.43 31.64 144.46 32.05 145.72 32.05C147.41 32.05 148.64 31.32 149.4 29.85C149.46 29.73 149.58 29.66 149.7 29.66H160.33C160.55 29.66 160.72 29.87 160.67 30.09C160.18 32.02 159.31 33.75 158.05 35.28C156.7 36.93 155 38.22 152.95 39.16C150.9 40.1 148.63 40.57 146.15 40.57C143.16 40.57 140.51 39.94 138.19 38.67C135.87 37.4 134.05 35.59 132.74 33.24C131.43 30.89 130.77 28.12 130.77 24.93C130.77 21.74 131.42 18.98 132.71 16.64C134 14.31 135.81 12.5 138.13 11.24C140.45 9.97003 143.12 9.34003 146.14 9.34003C149.16 9.34003 151.77 9.96003 154.07 11.19C156.37 12.42 158.17 14.19 159.46 16.49C160.75 18.79 161.4 21.5 161.4 24.61C161.4 25.34 161.36 26.07 161.28 26.8C161.26 26.98 161.11 27.11 160.94 27.11H160.95Z" fill="#F46E00"/>
<path d="M195 23.35V26.68C195 28.18 193.78 29.41 192.29 29.41H185.27V36.48C185.27 37.98 184.05 39.21 182.56 39.21H179.26C177.76 39.21 176.55 37.99 176.55 36.48V29.41H169.53C168.03 29.41 166.82 28.19 166.82 26.68V23.35C166.82 21.85 168.04 20.62 169.53 20.62H176.55V13.55C176.55 12.05 177.77 10.82 179.26 10.82H182.56C184.05 10.82 185.27 12.05 185.27 13.55V20.62H192.29C193.79 20.62 195 21.85 195 23.35Z" fill="#F46E00"/>
</svg>
