<svg width="72" height="83" viewBox="0 0 72 83" fill="none" xmlns="http://www.w3.org/2000/svg">
<path d="M-9.47676e-07 59.2768C-4.24224e-07 72.1619 9.72216 82.6044 21.7099 82.6044L71.7645 82.6044C71.7494 82.2034 71.708 81.8064 71.708 81.4013L71.708 8.05507e-05L-3.35578e-06 8.39233e-05L-9.47676e-07 59.2768ZM38.5343 17.0491C40.9281 17.0491 42.8732 19.1393 42.8732 21.7195L42.8732 33.7944L54.1184 33.7944C56.5121 33.7944 58.4573 35.8926 58.4573 38.4648L58.4573 44.1478C58.4573 46.728 56.5121 48.8181 54.1184 48.8181L42.8732 48.8181L42.8732 60.893C42.8732 63.4733 40.9281 65.5634 38.5343 65.5634L33.2378 65.5634C30.844 65.5634 28.8913 63.4733 28.8913 60.893L28.8913 48.8181L17.6537 48.8181C15.2599 48.8181 13.3072 46.728 13.3072 44.1478L13.3072 38.4648C13.3072 35.8926 15.2599 33.7944 17.6537 33.7944L28.8913 33.7944L28.8913 21.7195C28.8913 19.1393 30.844 17.0491 33.2378 17.0491L38.5343 17.0491Z" fill="white"/>
</svg>
