<svg width="47" height="47" viewBox="0 0 47 47" fill="none" xmlns="http://www.w3.org/2000/svg">
<path d="M14.2571 32.8268H25.8631V21.2208H14.2571V32.8268ZM14.2571 16.5784H42.1115V4.97238H14.2571V16.5784ZM30.5055 32.8268H42.1115V21.2208H30.5055V32.8268ZM14.2571 37.4693C12.9804 37.4693 11.8875 37.0147 10.9784 36.1055C10.0692 35.1964 9.61466 34.1035 9.61466 32.8268V4.97238C9.61466 3.69572 10.0692 2.60282 10.9784 1.69368C11.8875 0.784541 12.9804 0.329971 14.2571 0.329971H42.1115C43.3882 0.329971 44.4811 0.784541 45.3902 1.69368C46.2994 2.60282 46.7539 3.69572 46.7539 4.97238V32.8268C46.7539 34.1035 46.2994 35.1964 45.3902 36.1055C44.4811 37.0147 43.3882 37.4693 42.1115 37.4693H14.2571ZM4.97224 46.7541C3.69558 46.7541 2.60268 46.2995 1.69354 45.3904C0.784403 44.4812 0.329834 43.3883 0.329834 42.1117V9.61479H4.97224V42.1117H37.4691V46.7541H4.97224Z" fill="#FF6A33"/>
</svg>
