<svg width="43" height="38" viewBox="0 0 43 38" fill="none" xmlns="http://www.w3.org/2000/svg">
<path d="M7.61474 37.9991C5.6804 37.9991 4.03621 37.3221 2.68218 35.9681C1.32814 34.614 0.651123 32.9698 0.651123 31.0355C0.651123 29.1012 1.32814 27.457 2.68218 26.1029C4.03621 24.7489 5.6804 24.0719 7.61474 24.0719C9.54908 24.0719 11.1933 24.7489 12.5473 26.1029C13.9013 27.457 14.5784 29.1012 14.5784 31.0355C14.5784 32.9698 13.9013 34.614 12.5473 35.9681C11.1933 37.3221 9.54908 37.9991 7.61474 37.9991ZM35.4692 37.9991C33.5349 37.9991 31.8907 37.3221 30.5366 35.9681C29.1826 34.614 28.5056 32.9698 28.5056 31.0355C28.5056 29.1012 29.1826 27.457 30.5366 26.1029C31.8907 24.7489 33.5349 24.0719 35.4692 24.0719C37.4035 24.0719 39.0477 24.7489 40.4018 26.1029C41.7558 27.457 42.4328 29.1012 42.4328 31.0355C42.4328 32.9698 41.7558 34.614 40.4018 35.9681C39.0477 37.3221 37.4035 37.9991 35.4692 37.9991ZM21.542 14.7871C19.6076 14.7871 17.9634 14.11 16.6094 12.756C15.2554 11.402 14.5784 9.75779 14.5784 7.82345C14.5784 5.88911 15.2554 4.24492 16.6094 2.89089C17.9634 1.53685 19.6076 0.859833 21.542 0.859833C23.4763 0.859833 25.1205 1.53685 26.4745 2.89089C27.8286 4.24492 28.5056 5.88911 28.5056 7.82345C28.5056 9.75779 27.8286 11.402 26.4745 12.756C25.1205 14.11 23.4763 14.7871 21.542 14.7871Z" fill="#FF6A33"/>
</svg>
