<svg width="24" height="17" viewBox="0 0 24 17" fill="none" xmlns="http://www.w3.org/2000/svg">
<path d="M16.5956 8.23523C18.4886 8.23523 20.1171 6.54494 20.1171 4.3438C20.1171 2.16923 18.48 0.558228 16.5956 0.558228C14.7116 0.558228 13.074 2.20437 13.074 4.36137C13.074 6.54494 14.7026 8.23523 16.5956 8.23523ZM6.462 8.43794C8.09957 8.43794 9.52629 6.95851 9.52629 5.04794C9.52629 3.15537 8.09057 1.75523 6.462 1.75523C4.82486 1.75523 3.38057 3.19051 3.38957 5.06594C3.38957 6.95851 4.81586 8.43794 6.46243 8.43794M1.54971 16.3879H8.24057C7.32514 15.0585 8.44329 12.3821 10.3363 10.9207C9.35914 10.2692 8.09957 9.78494 6.45343 9.78494C2.48271 9.78451 0 12.7159 0 15.1549C0 15.9478 0.440143 16.3879 1.54971 16.3879ZM11.058 16.3879H22.1246C23.5067 16.3879 24 15.9915 24 15.2167C24 12.9452 21.156 9.81109 16.587 9.81109C12.0266 9.81109 9.18257 12.9452 9.18257 15.2171C9.18257 15.9915 9.67543 16.3879 11.058 16.3879Z" fill="#3FD0FC"/>
</svg>
