<svg width="39" height="38" viewBox="0 0 39 38" fill="none" xmlns="http://www.w3.org/2000/svg">
<path d="M19.5001 0C29.9935 8.24649e-06 38.5001 8.5066 38.5001 19C38.5001 29.4934 29.9935 38 19.5001 38C9.00666 38 0.500069 29.4934 0.500061 19C0.500061 8.5066 9.00666 0 19.5001 0Z" fill="white"/>
<path d="M26.4018 8L20.3387 14.9308L15.0959 8H7.50006L16.5741 19.8641L7.97458 29.693H11.6566L18.2937 22.108L24.0947 29.693H31.5001L22.0413 17.1881L30.0814 8H26.4018ZM25.1105 27.4903L11.7986 10.0862H13.9867L27.1493 27.4891L25.1105 27.4903Z" fill="#1A3C40"/>
</svg>
